<svg width="80" height="80" xmlns="http://www.w3.org/2000/svg" viewBox="-200 -200 500 500" preserveAspectRatio="xMidYMid" class="lds-stripe" style="background:#fefac7 0 0"><defs><pattern id="a" patternUnits="userSpaceOnUse" x="0" y="0" width="100" height="100"><g transform="translate(7.8)"><g><path fill="orange" d="M-20-10H-10V110H-20z" transform="rotate(20 50 50) scale(1.2)"/><path fill="#ffffcb" d="M-10-10H0V110H-10z" transform="rotate(20 50 50) scale(1.2)"/><path fill="orange" d="M0-10H10V110H0z" transform="rotate(20 50 50) scale(1.2)"/><path fill="#ffffcb" d="M10-10H20V110H10z" transform="rotate(20 50 50) scale(1.2)"/><path fill="orange" d="M20-10H30V110H20z" transform="rotate(20 50 50) scale(1.2)"/><path fill="#ffffcb" d="M30-10H40V110H30z" transform="rotate(20 50 50) scale(1.2)"/><path fill="orange" d="M40-10H50V110H40z" transform="rotate(20 50 50) scale(1.2)"/><path fill="#ffffcb" d="M50-10H60V110H50z" transform="rotate(20 50 50) scale(1.2)"/><path fill="orange" d="M60-10H70V110H60z" transform="rotate(20 50 50) scale(1.2)"/><path fill="#ffffcb" d="M70-10H80V110H70z" transform="rotate(20 50 50) scale(1.2)"/><path fill="orange" d="M80-10H90V110H80z" transform="rotate(20 50 50) scale(1.2)"/><path fill="#ffffcb" d="M90-10H100V110H90z" transform="rotate(20 50 50) scale(1.2)"/><path fill="orange" d="M100-10H110V110H100zM110-10H120V110H110z" transform="rotate(20 50 50) scale(1.2)"/></g><animateTransform attributeName="transform" type="translate" values="0 0;26 0" keyTimes="0;1" repeatCount="indefinite" dur="1s"/></g></pattern></defs><rect fill="url(#a)" rx="15" ry="15" x="5" y="36" stroke="orange" stroke-width="5" width="90" height="28"/></svg>